<?xml version="1.0" encoding="UTF-8"?>
<svg id="Layer_1" data-name="Layer 1" xmlns="http://www.w3.org/2000/svg" viewBox="0 0 1192.17 1164.32">
  <defs>
    <style>
      .cls-1 {
        fill: #fff;
        stroke-width: 0px;
      }
    </style>
  </defs>
  <path class="cls-1" d="m586.62,1150.07c-53.61,0-103.94-20.83-141.75-58.66L80.71,727.27c-37.86-37.83-58.71-88.18-58.71-141.72s20.85-103.94,58.71-141.77L444.87,79.64c78.21-78.18,205.38-78.18,283.49,0l364.14,364.14c37.88,37.83,58.73,88.18,58.73,141.77s-20.85,103.89-58.73,141.72l-364.14,364.14c-37.83,37.83-88.16,58.66-141.75,58.66Zm0-1104.31c-44.99,0-90,17.11-124.25,51.36L98.2,461.27c-33.2,33.2-51.46,77.31-51.46,124.28s18.26,91.03,51.46,124.23l364.16,364.14c33.12,33.15,77.26,51.41,124.25,51.41s91.11-18.26,124.25-51.41l364.14-364.14c33.2-33.2,51.49-77.31,51.49-124.23s-18.29-91.08-51.49-124.28L710.87,97.13c-34.26-34.26-79.24-51.36-124.25-51.36Z"/>
  <path class="cls-1" d="m533.32,1065.75c-45.6-5.06-86.45-27.53-115.04-63.28l-275.39-344.13c-28.63-35.76-41.61-80.56-36.56-126.1,5.06-45.58,27.55-86.44,63.33-115.05l344.15-275.37c73.91-59.12,182.09-47.11,241.15,26.77l275.37,344.13c28.65,35.76,41.63,80.56,36.58,126.14-5.05,45.54-27.54,86.4-63.34,115.01l-344.13,275.37c-35.76,28.61-80.53,41.58-126.11,36.52Zm104.26-939.36c-38.27-4.25-78.17,6.05-110.55,31.96L182.89,433.71c-31.37,25.1-51.07,60.91-55.51,100.86-4.43,39.91,6.94,79.16,32.05,110.53l275.39,344.13c25.05,31.32,60.87,51.03,100.84,55.47,39.95,4.43,79.22-6.93,110.55-32l344.13-275.37c31.37-25.1,51.09-60.9,55.52-100.81,4.43-39.95-6.96-79.21-32.06-110.58l-275.37-344.13c-25.91-32.38-62.56-51.17-100.85-55.42Z"/>
  <path class="cls-1" d="m498.6,988.96c-38.31-8.36-71.03-31.09-92.15-64.02l-203.46-317c-21.16-32.94-28.21-72.17-19.86-110.43,8.35-38.29,31.1-71.02,64.06-92.16l317.01-203.44c68.08-43.68,158.96-23.85,202.59,44.2l203.45,316.99c21.17,32.94,28.22,72.18,19.87,110.47-8.35,38.26-31.1,70.99-64.07,92.12l-316.99,203.45c-32.94,21.14-72.15,28.17-110.44,19.82Zm172.18-789.16c-32.15-7.01-66.98-1.81-96.8,17.33l-317.01,203.44c-28.9,18.55-48.83,47.23-56.15,80.79-7.32,33.53-1.14,67.9,17.41,96.8l203.46,317c18.5,28.85,47.2,48.79,80.78,56.11,33.56,7.32,67.95,1.15,96.81-17.37l316.99-203.45c28.9-18.55,48.85-47.22,56.16-80.75,7.32-33.56,1.13-67.94-17.42-96.84l-203.45-316.99c-19.14-29.82-48.62-49.06-80.79-56.08Z"/>
  <path class="cls-1" d="m472.44,910.69c-30.88-10.84-55.65-33.02-69.78-62.46l-136.1-283.39c-14.15-29.45-15.98-62.67-5.15-93.5,10.84-30.86,33.03-55.65,62.49-69.78l283.4-136.08c60.86-29.21,134.11-3.49,163.28,57.34l136.08,283.38c14.17,29.45,15.99,62.67,5.15,93.53-10.83,30.84-33.02,55.62-62.49,69.75l-283.38,136.08c-29.44,14.14-62.64,15.96-93.51,5.12Zm223.35-636.05c-25.91-9.1-55.29-8.35-81.96,4.45l-283.4,136.08c-25.83,12.41-45.28,34.12-54.78,61.17-9.49,27.02-7.89,56.13,4.51,81.96l136.1,283.39c12.37,25.79,34.1,45.24,61.17,54.74,27.05,9.5,56.17,7.91,81.97-4.48l283.38-136.08c25.83-12.41,45.29-34.12,54.78-61.14,9.5-27.05,7.89-56.16-4.52-81.99l-136.08-283.38c-12.8-26.66-35.25-45.61-61.18-54.72Z"/>
  <path class="cls-1" d="m443.5,819.94c-22.26-13.59-37.88-35-43.98-60.29l-58.89-243.52c-6.13-25.31-2.02-51.5,11.55-73.73,13.59-22.25,35.01-37.87,60.32-43.98l243.53-58.87c52.29-12.64,105.1,19.61,117.71,71.87l58.88,243.52c6.14,25.31,2.03,51.51-11.56,73.76-13.57,22.23-35,37.85-60.32,43.96l-243.52,58.88c-25.3,6.12-51.48,2.01-73.73-11.58Zm279.97-458.53c-18.68-11.4-41.7-15.71-64.62-10.17l-243.53,58.87c-22.2,5.37-40.97,19.06-52.88,38.56-11.9,19.48-15.5,42.43-10.13,64.63l58.89,243.52c5.35,22.16,19.05,40.94,38.56,52.85,19.5,11.91,42.46,15.51,64.63,10.15l243.52-58.88c22.2-5.37,40.98-19.05,52.87-38.53,11.91-19.5,15.5-42.46,10.13-64.66l-58.88-243.52c-5.54-22.91-19.88-41.42-38.57-52.83Z"/>
</svg>